<svg xmlns="http://www.w3.org/2000/svg" xmlns:xlink="http://www.w3.org/1999/xlink" width="154" zoomAndPan="magnify" viewBox="0 0 115.5 36.750001" height="49" preserveAspectRatio="xMidYMid meet" version="1.0"><defs><g/><clipPath id="36f6a16b9d"><path d="M 58.0625 2.804688 L 65.621094 2.804688 L 65.621094 13.820312 L 58.0625 13.820312 Z M 58.0625 2.804688 " clip-rule="nonzero"/></clipPath><clipPath id="ff7579b877"><path d="M 38.449219 2.84375 C 38.449219 2.84375 40.535156 5.574219 57.195312 5.632812 C 71.117188 5.679688 76.523438 2.84375 76.523438 2.84375 C 76.523438 2.84375 75.558594 22.808594 58.171875 22.808594 C 40.78125 22.808594 38.449219 2.84375 38.449219 2.84375 Z M 38.449219 2.84375 " clip-rule="nonzero"/></clipPath><clipPath id="20ff82a457"><path d="M 58 2.804688 L 65.75 2.804688 L 65.75 13.820312 L 58 13.820312 Z M 58 2.804688 " clip-rule="nonzero"/></clipPath><clipPath id="57fe702b6b"><path d="M 38.449219 2.84375 C 38.449219 2.84375 40.535156 5.574219 57.195312 5.632812 C 71.117188 5.679688 76.523438 2.84375 76.523438 2.84375 C 76.523438 2.84375 75.558594 22.808594 58.171875 22.808594 C 40.78125 22.808594 38.449219 2.84375 38.449219 2.84375 Z M 38.449219 2.84375 " clip-rule="nonzero"/></clipPath><clipPath id="9ebc19dcc1"><path d="M 65.109375 2.804688 L 72.792969 2.804688 L 72.792969 12.925781 L 65.109375 12.925781 Z M 65.109375 2.804688 " clip-rule="nonzero"/></clipPath><clipPath id="ed497b8ff7"><path d="M 38.449219 2.84375 C 38.449219 2.84375 40.535156 5.574219 57.195312 5.632812 C 71.117188 5.679688 76.523438 2.84375 76.523438 2.84375 C 76.523438 2.84375 75.558594 22.808594 58.171875 22.808594 C 40.78125 22.808594 38.449219 2.84375 38.449219 2.84375 Z M 38.449219 2.84375 " clip-rule="nonzero"/></clipPath><clipPath id="e5b74e963d"><path d="M 65 2.804688 L 72.921875 2.804688 L 72.921875 13.050781 L 65 13.050781 Z M 65 2.804688 " clip-rule="nonzero"/></clipPath><clipPath id="6dabb70212"><path d="M 38.449219 2.84375 C 38.449219 2.84375 40.535156 5.574219 57.195312 5.632812 C 71.117188 5.679688 76.523438 2.84375 76.523438 2.84375 C 76.523438 2.84375 75.558594 22.808594 58.171875 22.808594 C 40.78125 22.808594 38.449219 2.84375 38.449219 2.84375 Z M 38.449219 2.84375 " clip-rule="nonzero"/></clipPath><clipPath id="bc034f2723"><path d="M 72.027344 2.804688 L 76.636719 2.804688 L 76.636719 11 L 72.027344 11 Z M 72.027344 2.804688 " clip-rule="nonzero"/></clipPath><clipPath id="c1e35a94b1"><path d="M 38.449219 2.84375 C 38.449219 2.84375 40.535156 5.574219 57.195312 5.632812 C 71.117188 5.679688 76.523438 2.84375 76.523438 2.84375 C 76.523438 2.84375 75.558594 22.808594 58.171875 22.808594 C 40.78125 22.808594 38.449219 2.84375 38.449219 2.84375 Z M 38.449219 2.84375 " clip-rule="nonzero"/></clipPath><clipPath id="fe3125d867"><path d="M 71.898438 2.804688 L 76.636719 2.804688 L 76.636719 11.132812 L 71.898438 11.132812 Z M 71.898438 2.804688 " clip-rule="nonzero"/></clipPath><clipPath id="9ad2f4495f"><path d="M 38.449219 2.84375 C 38.449219 2.84375 40.535156 5.574219 57.195312 5.632812 C 71.117188 5.679688 76.523438 2.84375 76.523438 2.84375 C 76.523438 2.84375 75.558594 22.808594 58.171875 22.808594 C 40.78125 22.808594 38.449219 2.84375 38.449219 2.84375 Z M 38.449219 2.84375 " clip-rule="nonzero"/></clipPath><clipPath id="aa46f8d100"><path d="M 38.339844 2.804688 L 44.488281 2.804688 L 44.488281 11 L 38.339844 11 Z M 38.339844 2.804688 " clip-rule="nonzero"/></clipPath><clipPath id="2b9f3bbb30"><path d="M 38.449219 2.84375 C 38.449219 2.84375 40.535156 5.574219 57.195312 5.632812 C 71.117188 5.679688 76.523438 2.84375 76.523438 2.84375 C 76.523438 2.84375 75.558594 22.808594 58.171875 22.808594 C 40.78125 22.808594 38.449219 2.84375 38.449219 2.84375 Z M 38.449219 2.84375 " clip-rule="nonzero"/></clipPath><clipPath id="075c1b9b98"><path d="M 38.339844 2.804688 L 44.613281 2.804688 L 44.613281 11.132812 L 38.339844 11.132812 Z M 38.339844 2.804688 " clip-rule="nonzero"/></clipPath><clipPath id="13e42171df"><path d="M 38.449219 2.84375 C 38.449219 2.84375 40.535156 5.574219 57.195312 5.632812 C 71.117188 5.679688 76.523438 2.84375 76.523438 2.84375 C 76.523438 2.84375 75.558594 22.808594 58.171875 22.808594 C 40.78125 22.808594 38.449219 2.84375 38.449219 2.84375 Z M 38.449219 2.84375 " clip-rule="nonzero"/></clipPath><clipPath id="0a4c315351"><path d="M 58.0625 12.925781 L 65.75 12.925781 L 65.75 22.914062 L 58.0625 22.914062 Z M 58.0625 12.925781 " clip-rule="nonzero"/></clipPath><clipPath id="2205fcaf9d"><path d="M 38.449219 2.84375 C 38.449219 2.84375 40.535156 5.574219 57.195312 5.632812 C 71.117188 5.679688 76.523438 2.84375 76.523438 2.84375 C 76.523438 2.84375 75.558594 22.808594 58.171875 22.808594 C 40.78125 22.808594 38.449219 2.84375 38.449219 2.84375 Z M 38.449219 2.84375 " clip-rule="nonzero"/></clipPath><clipPath id="4973608ee5"><path d="M 58 12.796875 L 65.75 12.796875 L 65.75 22.914062 L 58 22.914062 Z M 58 12.796875 " clip-rule="nonzero"/></clipPath><clipPath id="1c7cedbd7a"><path d="M 38.449219 2.84375 C 38.449219 2.84375 40.535156 5.574219 57.195312 5.632812 C 71.117188 5.679688 76.523438 2.84375 76.523438 2.84375 C 76.523438 2.84375 75.558594 22.808594 58.171875 22.808594 C 40.78125 22.808594 38.449219 2.84375 38.449219 2.84375 Z M 38.449219 2.84375 " clip-rule="nonzero"/></clipPath><clipPath id="6727d47dca"><path d="M 65.367188 11.386719 L 72.921875 11.386719 L 72.921875 22.914062 L 65.367188 22.914062 Z M 65.367188 11.386719 " clip-rule="nonzero"/></clipPath><clipPath id="5e8008d48f"><path d="M 38.449219 2.84375 C 38.449219 2.84375 40.535156 5.574219 57.195312 5.632812 C 71.117188 5.679688 76.523438 2.84375 76.523438 2.84375 C 76.523438 2.84375 75.558594 22.808594 58.171875 22.808594 C 40.78125 22.808594 38.449219 2.84375 38.449219 2.84375 Z M 38.449219 2.84375 " clip-rule="nonzero"/></clipPath><clipPath id="04b7a97042"><path d="M 65.238281 11.257812 L 73 11.257812 L 73 22.914062 L 65.238281 22.914062 Z M 65.238281 11.257812 " clip-rule="nonzero"/></clipPath><clipPath id="67ea07bdd2"><path d="M 38.449219 2.84375 C 38.449219 2.84375 40.535156 5.574219 57.195312 5.632812 C 71.117188 5.679688 76.523438 2.84375 76.523438 2.84375 C 76.523438 2.84375 75.558594 22.808594 58.171875 22.808594 C 40.78125 22.808594 38.449219 2.84375 38.449219 2.84375 Z M 38.449219 2.84375 " clip-rule="nonzero"/></clipPath><clipPath id="29510b19f5"><path d="M 72.410156 8.570312 L 76.636719 8.570312 L 76.636719 22.273438 L 72.410156 22.273438 Z M 72.410156 8.570312 " clip-rule="nonzero"/></clipPath><clipPath id="ab315fd6a8"><path d="M 38.449219 2.84375 C 38.449219 2.84375 40.535156 5.574219 57.195312 5.632812 C 71.117188 5.679688 76.523438 2.84375 76.523438 2.84375 C 76.523438 2.84375 75.558594 22.808594 58.171875 22.808594 C 40.78125 22.808594 38.449219 2.84375 38.449219 2.84375 Z M 38.449219 2.84375 " clip-rule="nonzero"/></clipPath><clipPath id="5565893ce2"><path d="M 72.28125 8.441406 L 76.636719 8.441406 L 76.636719 22.402344 L 72.28125 22.402344 Z M 72.28125 8.441406 " clip-rule="nonzero"/></clipPath><clipPath id="c94f25c531"><path d="M 38.449219 2.84375 C 38.449219 2.84375 40.535156 5.574219 57.195312 5.632812 C 71.117188 5.679688 76.523438 2.84375 76.523438 2.84375 C 76.523438 2.84375 75.558594 22.808594 58.171875 22.808594 C 40.78125 22.808594 38.449219 2.84375 38.449219 2.84375 Z M 38.449219 2.84375 " clip-rule="nonzero"/></clipPath><clipPath id="810a746a6d"><path d="M 50.890625 2.804688 L 58.449219 2.804688 L 58.449219 13.820312 L 50.890625 13.820312 Z M 50.890625 2.804688 " clip-rule="nonzero"/></clipPath><clipPath id="04e7b42e6f"><path d="M 38.449219 2.84375 C 38.449219 2.84375 40.535156 5.574219 57.195312 5.632812 C 71.117188 5.679688 76.523438 2.84375 76.523438 2.84375 C 76.523438 2.84375 75.558594 22.808594 58.171875 22.808594 C 40.78125 22.808594 38.449219 2.84375 38.449219 2.84375 Z M 38.449219 2.84375 " clip-rule="nonzero"/></clipPath><clipPath id="b542d24135"><path d="M 50.761719 2.804688 L 58.578125 2.804688 L 58.578125 13.820312 L 50.761719 13.820312 Z M 50.761719 2.804688 " clip-rule="nonzero"/></clipPath><clipPath id="68d9c92d45"><path d="M 38.449219 2.84375 C 38.449219 2.84375 40.535156 5.574219 57.195312 5.632812 C 71.117188 5.679688 76.523438 2.84375 76.523438 2.84375 C 76.523438 2.84375 75.558594 22.808594 58.171875 22.808594 C 40.78125 22.808594 38.449219 2.84375 38.449219 2.84375 Z M 38.449219 2.84375 " clip-rule="nonzero"/></clipPath><clipPath id="1522fcb8ff"><path d="M 43.71875 2.804688 L 51.402344 2.804688 L 51.402344 12.925781 L 43.71875 12.925781 Z M 43.71875 2.804688 " clip-rule="nonzero"/></clipPath><clipPath id="537b6d47f7"><path d="M 38.449219 2.84375 C 38.449219 2.84375 40.535156 5.574219 57.195312 5.632812 C 71.117188 5.679688 76.523438 2.84375 76.523438 2.84375 C 76.523438 2.84375 75.558594 22.808594 58.171875 22.808594 C 40.78125 22.808594 38.449219 2.84375 38.449219 2.84375 Z M 38.449219 2.84375 " clip-rule="nonzero"/></clipPath><clipPath id="25a4653045"><path d="M 43.589844 2.804688 L 51.53125 2.804688 L 51.53125 13.050781 L 43.589844 13.050781 Z M 43.589844 2.804688 " clip-rule="nonzero"/></clipPath><clipPath id="367de4cb3c"><path d="M 38.449219 2.84375 C 38.449219 2.84375 40.535156 5.574219 57.195312 5.632812 C 71.117188 5.679688 76.523438 2.84375 76.523438 2.84375 C 76.523438 2.84375 75.558594 22.808594 58.171875 22.808594 C 40.78125 22.808594 38.449219 2.84375 38.449219 2.84375 Z M 38.449219 2.84375 " clip-rule="nonzero"/></clipPath><clipPath id="e6e0bc09ed"><path d="M 50.761719 12.925781 L 58.449219 12.925781 L 58.449219 22.914062 L 50.761719 22.914062 Z M 50.761719 12.925781 " clip-rule="nonzero"/></clipPath><clipPath id="ea35c5f2bf"><path d="M 38.449219 2.84375 C 38.449219 2.84375 40.535156 5.574219 57.195312 5.632812 C 71.117188 5.679688 76.523438 2.84375 76.523438 2.84375 C 76.523438 2.84375 75.558594 22.808594 58.171875 22.808594 C 40.78125 22.808594 38.449219 2.84375 38.449219 2.84375 Z M 38.449219 2.84375 " clip-rule="nonzero"/></clipPath><clipPath id="0f6597ad25"><path d="M 50.636719 12.796875 L 58.578125 12.796875 L 58.578125 22.914062 L 50.636719 22.914062 Z M 50.636719 12.796875 " clip-rule="nonzero"/></clipPath><clipPath id="f7f0a55f40"><path d="M 38.449219 2.84375 C 38.449219 2.84375 40.535156 5.574219 57.195312 5.632812 C 71.117188 5.679688 76.523438 2.84375 76.523438 2.84375 C 76.523438 2.84375 75.558594 22.808594 58.171875 22.808594 C 40.78125 22.808594 38.449219 2.84375 38.449219 2.84375 Z M 38.449219 2.84375 " clip-rule="nonzero"/></clipPath><clipPath id="0bf331d9d1"><path d="M 43.589844 11.386719 L 51.148438 11.386719 L 51.148438 22.914062 L 43.589844 22.914062 Z M 43.589844 11.386719 " clip-rule="nonzero"/></clipPath><clipPath id="9de0fcf3d1"><path d="M 38.449219 2.84375 C 38.449219 2.84375 40.535156 5.574219 57.195312 5.632812 C 71.117188 5.679688 76.523438 2.84375 76.523438 2.84375 C 76.523438 2.84375 75.558594 22.808594 58.171875 22.808594 C 40.78125 22.808594 38.449219 2.84375 38.449219 2.84375 Z M 38.449219 2.84375 " clip-rule="nonzero"/></clipPath><clipPath id="e1adfca273"><path d="M 43.460938 11.257812 L 51.273438 11.257812 L 51.273438 22.914062 L 43.460938 22.914062 Z M 43.460938 11.257812 " clip-rule="nonzero"/></clipPath><clipPath id="4e6a590bd7"><path d="M 38.449219 2.84375 C 38.449219 2.84375 40.535156 5.574219 57.195312 5.632812 C 71.117188 5.679688 76.523438 2.84375 76.523438 2.84375 C 76.523438 2.84375 75.558594 22.808594 58.171875 22.808594 C 40.78125 22.808594 38.449219 2.84375 38.449219 2.84375 Z M 38.449219 2.84375 " clip-rule="nonzero"/></clipPath><clipPath id="af03853261"><path d="M 38.339844 8.570312 L 44.101562 8.570312 L 44.101562 22.273438 L 38.339844 22.273438 Z M 38.339844 8.570312 " clip-rule="nonzero"/></clipPath><clipPath id="b22bfa6839"><path d="M 38.449219 2.84375 C 38.449219 2.84375 40.535156 5.574219 57.195312 5.632812 C 71.117188 5.679688 76.523438 2.84375 76.523438 2.84375 C 76.523438 2.84375 75.558594 22.808594 58.171875 22.808594 C 40.78125 22.808594 38.449219 2.84375 38.449219 2.84375 Z M 38.449219 2.84375 " clip-rule="nonzero"/></clipPath><clipPath id="19f0466cec"><path d="M 38.339844 8.441406 L 44.230469 8.441406 L 44.230469 22.402344 L 38.339844 22.402344 Z M 38.339844 8.441406 " clip-rule="nonzero"/></clipPath><clipPath id="50802affe2"><path d="M 38.449219 2.84375 C 38.449219 2.84375 40.535156 5.574219 57.195312 5.632812 C 71.117188 5.679688 76.523438 2.84375 76.523438 2.84375 C 76.523438 2.84375 75.558594 22.808594 58.171875 22.808594 C 40.78125 22.808594 38.449219 2.84375 38.449219 2.84375 Z M 38.449219 2.84375 " clip-rule="nonzero"/></clipPath><clipPath id="e9079c74a6"><path d="M 36.148438 0 L 40 0 L 40 6 L 36.148438 6 Z M 36.148438 0 " clip-rule="nonzero"/></clipPath><clipPath id="2510992cc8"><path d="M 75 0 L 78.609375 0 L 78.609375 7 L 75 7 Z M 75 0 " clip-rule="nonzero"/></clipPath><clipPath id="bded1362f5"><path d="M 51 24 L 64 24 L 64 26.074219 L 51 26.074219 Z M 51 24 " clip-rule="nonzero"/></clipPath><clipPath id="620176cbf5"><path d="M 64 22 L 66 22 L 66 24 L 64 24 Z M 64 22 " clip-rule="nonzero"/></clipPath><clipPath id="d6db2c0bf9"><path d="M 65.113281 21.960938 L 66.078125 23.097656 L 65.507812 23.578125 L 64.546875 22.441406 Z M 65.113281 21.960938 " clip-rule="nonzero"/></clipPath><clipPath id="da9a5ff5d7"><path d="M 65.113281 21.960938 L 66.078125 23.097656 L 65.507812 23.578125 L 64.546875 22.441406 Z M 65.113281 21.960938 " clip-rule="nonzero"/></clipPath><clipPath id="938c043ac8"><path d="M 65 21 L 67 21 L 67 23 L 65 23 Z M 65 21 " clip-rule="nonzero"/></clipPath><clipPath id="d33cc8e0e9"><path d="M 65.714844 21.394531 L 66.679688 22.53125 L 66.109375 23.011719 L 65.144531 21.875 Z M 65.714844 21.394531 " clip-rule="nonzero"/></clipPath><clipPath id="6beff96eed"><path d="M 65.714844 21.394531 L 66.679688 22.53125 L 66.109375 23.011719 L 65.144531 21.875 Z M 65.714844 21.394531 " clip-rule="nonzero"/></clipPath></defs><path fill="#761927" d="M 38.449219 2.84375 C 38.449219 2.84375 40.535156 5.574219 57.195312 5.632812 C 71.117188 5.679688 76.523438 2.84375 76.523438 2.84375 C 76.523438 2.84375 75.558594 22.808594 58.171875 22.808594 C 40.78125 22.808594 38.449219 2.84375 38.449219 2.84375 " fill-opacity="1" fill-rule="nonzero"/><g clip-path="url(#36f6a16b9d)"><g clip-path="url(#ff7579b877)"><path fill="#ffffff" d="M 59.171875 13.710938 C 58.707031 13.710938 58.414062 13.34375 58.273438 12.585938 C 58.148438 11.9375 58.140625 11.0625 58.140625 10.066406 L 58.140625 4.839844 C 58.144531 2.777344 58.878906 1.160156 59.816406 1.160156 L 63.585938 1.160156 C 64.519531 1.164062 65.292969 2.726562 65.339844 4.714844 C 65.378906 6.433594 65.417969 6.789062 65.457031 7.132812 C 65.496094 7.480469 65.539062 7.839844 65.578125 9.570312 C 65.625 11.417969 65.660156 13.011719 64.628906 13.152344 C 64.238281 13.203125 60.789062 13.648438 59.207031 13.710938 L 59.171875 13.710938 " fill-opacity="1" fill-rule="nonzero"/></g></g><g clip-path="url(#20ff82a457)"><g clip-path="url(#57fe702b6b)"><path fill="#ffbd59" d="M 63.585938 1.054688 L 59.816406 1.054688 C 58.820312 1.054688 58.039062 2.71875 58.035156 4.839844 L 58.035156 10.066406 C 58.035156 11.066406 58.046875 11.949219 58.167969 12.605469 C 58.226562 12.90625 58.394531 13.816406 59.171875 13.816406 C 59.1875 13.816406 59.199219 13.816406 59.210938 13.816406 C 60.800781 13.753906 64.253906 13.308594 64.640625 13.253906 C 65.769531 13.101562 65.730469 11.464844 65.683594 9.566406 C 65.644531 7.832031 65.601562 7.46875 65.5625 7.121094 C 65.523438 6.78125 65.484375 6.425781 65.445312 4.710938 C 65.394531 2.667969 64.578125 1.058594 63.585938 1.054688 Z M 59.816406 1.261719 C 61.070312 1.261719 62.328125 1.261719 63.585938 1.261719 C 64.449219 1.269531 65.1875 2.816406 65.234375 4.714844 C 65.316406 8.167969 65.394531 6.121094 65.472656 9.570312 C 65.519531 11.472656 65.53125 12.921875 64.613281 13.046875 C 63.289062 13.222656 60.535156 13.554688 59.203125 13.605469 L 59.171875 13.605469 C 58.28125 13.605469 58.242188 12.019531 58.246094 10.066406 C 58.246094 6.492188 58.246094 8.414062 58.246094 4.839844 C 58.25 2.867188 58.953125 1.261719 59.816406 1.261719 " fill-opacity="1" fill-rule="nonzero"/></g></g><g clip-path="url(#9ebc19dcc1)"><g clip-path="url(#ed497b8ff7)"><path fill="#ffffff" d="M 66.304688 12.921875 C 65.445312 12.921875 65.410156 11.453125 65.371094 9.59375 L 65.371094 9.574219 C 65.332031 7.851562 65.289062 7.5 65.25 7.15625 C 65.210938 6.808594 65.171875 6.449219 65.128906 4.71875 C 65.101562 3.335938 65.445312 2.074219 66.007812 1.496094 C 66.226562 1.273438 66.46875 1.160156 66.71875 1.160156 L 70.492188 1.160156 C 71.429688 1.171875 72.222656 2.570312 72.296875 4.339844 L 72.679688 8.078125 C 72.6875 8.226562 72.691406 8.363281 72.699219 8.5 C 72.769531 10.074219 72.828125 11.316406 71.9375 11.601562 C 70.425781 12.070312 66.875 12.820312 66.476562 12.902344 C 66.417969 12.917969 66.359375 12.921875 66.304688 12.921875 " fill-opacity="1" fill-rule="nonzero"/></g></g><g clip-path="url(#e5b74e963d)"><g clip-path="url(#6dabb70212)"><path fill="#ffbd59" d="M 66.71875 1.054688 C 66.441406 1.054688 66.171875 1.179688 65.933594 1.421875 C 65.34375 2.027344 64.992188 3.292969 65.027344 4.71875 C 65.066406 6.457031 65.105469 6.816406 65.148438 7.167969 C 65.1875 7.507812 65.226562 7.859375 65.265625 9.578125 L 65.265625 9.59375 C 65.308594 11.511719 65.34375 13.027344 66.304688 13.027344 C 66.367188 13.027344 66.429688 13.019531 66.5 13.007812 C 66.898438 12.921875 70.449219 12.171875 71.964844 11.703125 C 72.9375 11.390625 72.875 10.050781 72.800781 8.496094 C 72.796875 8.359375 72.789062 8.21875 72.785156 8.078125 L 72.785156 8.074219 L 72.78125 8.066406 L 72.398438 4.332031 C 72.324219 2.503906 71.488281 1.066406 70.496094 1.054688 Z M 66.71875 1.261719 L 66.726562 1.261719 C 67.980469 1.261719 69.238281 1.261719 70.492188 1.261719 C 71.359375 1.273438 72.121094 2.65625 72.191406 4.34375 L 72.574219 8.089844 C 72.644531 9.78125 72.792969 11.21875 71.90625 11.503906 C 70.617188 11.902344 67.765625 12.527344 66.453125 12.800781 C 66.402344 12.8125 66.351562 12.820312 66.304688 12.820312 C 65.542969 12.820312 65.515625 11.371094 65.472656 9.570312 C 65.394531 6.121094 65.316406 8.167969 65.234375 4.714844 C 65.191406 2.808594 65.859375 1.261719 66.71875 1.261719 " fill-opacity="1" fill-rule="nonzero"/></g></g><g clip-path="url(#bc034f2723)"><g clip-path="url(#c1e35a94b1)"><path fill="#ffffff" d="M 73.503906 10.972656 C 72.691406 10.972656 72.527344 9.433594 72.472656 8.09375 L 72.085938 4.355469 C 72.039062 3.152344 72.335938 2.066406 72.859375 1.519531 C 73.085938 1.285156 73.351562 1.160156 73.621094 1.160156 L 77.402344 1.160156 C 78.324219 1.175781 79.125 2.324219 79.1875 3.714844 L 79.523438 5.605469 L 79.523438 5.613281 C 79.539062 5.898438 79.5625 6.179688 79.589844 6.453125 C 79.6875 7.488281 79.769531 8.382812 79.046875 8.765625 C 78.09375 9.25 76.226562 9.972656 74.859375 10.496094 C 74.457031 10.65625 74.09375 10.792969 73.804688 10.90625 C 73.703125 10.949219 73.601562 10.972656 73.503906 10.972656 " fill-opacity="1" fill-rule="nonzero"/></g></g><g clip-path="url(#fe3125d867)"><g clip-path="url(#9ad2f4495f)"><path fill="#ffbd59" d="M 73.621094 1.054688 C 73.320312 1.054688 73.03125 1.191406 72.785156 1.445312 C 72.242188 2.011719 71.933594 3.128906 71.984375 4.355469 L 71.984375 4.367188 L 72.367188 8.105469 C 72.425781 9.574219 72.609375 11.078125 73.503906 11.078125 C 73.613281 11.078125 73.730469 11.050781 73.847656 11.003906 C 74.128906 10.890625 74.488281 10.753906 74.898438 10.59375 C 76.265625 10.066406 78.136719 9.34375 79.089844 8.859375 C 79.878906 8.441406 79.789062 7.46875 79.691406 6.441406 C 79.667969 6.171875 79.640625 5.890625 79.628906 5.609375 L 79.628906 5.59375 L 79.625 5.582031 L 79.292969 3.703125 C 79.222656 2.238281 78.394531 1.074219 77.40625 1.054688 Z M 73.621094 1.261719 L 73.632812 1.261719 C 74.890625 1.261719 76.148438 1.261719 77.402344 1.261719 C 78.269531 1.28125 79.023438 2.382812 79.085938 3.726562 L 79.421875 5.617188 C 79.480469 6.960938 79.839844 8.226562 78.996094 8.671875 C 77.773438 9.296875 75.027344 10.3125 73.765625 10.8125 C 73.671875 10.851562 73.585938 10.867188 73.503906 10.867188 C 72.84375 10.867188 72.636719 9.617188 72.574219 8.089844 L 72.191406 4.34375 C 72.121094 2.640625 72.761719 1.261719 73.621094 1.261719 " fill-opacity="1" fill-rule="nonzero"/></g></g><g clip-path="url(#aa46f8d100)"><g clip-path="url(#2b9f3bbb30)"><path fill="#ffffff" d="M 42.984375 10.972656 C 42.890625 10.972656 42.789062 10.949219 42.683594 10.90625 C 42.398438 10.792969 42.035156 10.65625 41.628906 10.496094 C 40.265625 9.972656 38.398438 9.25 37.449219 8.765625 C 36.722656 8.382812 36.804688 7.488281 36.902344 6.449219 C 36.929688 6.179688 36.953125 5.898438 36.96875 5.613281 L 36.96875 5.605469 L 37.300781 3.714844 C 37.367188 2.324219 38.167969 1.175781 39.085938 1.160156 L 42.867188 1.160156 C 43.140625 1.160156 43.40625 1.285156 43.632812 1.519531 C 44.15625 2.066406 44.453125 3.152344 44.40625 4.351562 L 44.019531 8.097656 C 43.964844 9.433594 43.800781 10.972656 42.984375 10.972656 " fill-opacity="1" fill-rule="nonzero"/></g></g><g clip-path="url(#075c1b9b98)"><g clip-path="url(#13e42171df)"><path fill="#ffbd59" d="M 42.867188 1.054688 L 39.089844 1.054688 C 38.097656 1.074219 37.269531 2.238281 37.199219 3.703125 L 36.867188 5.582031 L 36.863281 5.59375 L 36.863281 5.609375 C 36.851562 5.890625 36.824219 6.171875 36.800781 6.441406 C 36.703125 7.46875 36.613281 8.441406 37.398438 8.859375 C 38.355469 9.34375 40.226562 10.066406 41.59375 10.59375 C 42.003906 10.753906 42.359375 10.890625 42.648438 11.003906 C 42.761719 11.050781 42.878906 11.078125 42.984375 11.078125 C 43.882812 11.078125 44.066406 9.574219 44.125 8.105469 L 44.507812 4.367188 L 44.507812 4.355469 C 44.558594 3.128906 44.25 2.011719 43.707031 1.445312 C 43.460938 1.191406 43.171875 1.054688 42.867188 1.054688 Z M 42.867188 1.261719 C 43.730469 1.261719 44.371094 2.640625 44.300781 4.34375 L 43.917969 8.089844 C 43.855469 9.617188 43.648438 10.867188 42.984375 10.867188 C 42.90625 10.867188 42.820312 10.851562 42.722656 10.8125 C 41.460938 10.3125 38.71875 9.296875 37.496094 8.671875 C 36.652344 8.226562 37.011719 6.960938 37.070312 5.617188 L 37.40625 3.726562 C 37.46875 2.382812 38.222656 1.28125 39.089844 1.261719 C 40.34375 1.261719 41.601562 1.261719 42.859375 1.261719 L 42.867188 1.261719 " fill-opacity="1" fill-rule="nonzero"/></g></g><g clip-path="url(#0a4c315351)"><g clip-path="url(#2205fcaf9d)"><path fill="#ffffff" d="M 59.882812 24.523438 C 59.410156 24.523438 58.96875 24.285156 58.640625 23.847656 C 58.316406 23.417969 58.140625 22.847656 58.140625 22.246094 L 58.140625 15.839844 C 58.140625 14.660156 58.144531 13.542969 59.164062 13.507812 C 60.5 13.460938 63.296875 13.132812 64.488281 12.988281 C 64.535156 12.984375 64.578125 12.980469 64.617188 12.980469 C 65.515625 12.980469 65.53125 14.164062 65.550781 15.308594 L 65.570312 16.769531 C 65.59375 18.445312 65.617188 20.070312 65.640625 21.804688 C 65.65625 23.105469 64.882812 24.230469 63.914062 24.3125 C 62.628906 24.421875 61.28125 24.492188 59.914062 24.523438 L 59.882812 24.523438 " fill-opacity="1" fill-rule="nonzero"/></g></g><g clip-path="url(#4973608ee5)"><g clip-path="url(#1c7cedbd7a)"><path fill="#ffbd59" d="M 64.617188 12.878906 C 64.574219 12.878906 64.527344 12.878906 64.476562 12.886719 C 63.285156 13.027344 60.492188 13.359375 59.160156 13.40625 C 58.039062 13.445312 58.039062 14.660156 58.035156 15.839844 L 58.035156 22.246094 C 58.035156 22.871094 58.222656 23.460938 58.558594 23.910156 C 58.90625 24.375 59.378906 24.628906 59.882812 24.628906 C 59.894531 24.628906 59.90625 24.628906 59.917969 24.628906 C 61.285156 24.597656 62.632812 24.523438 63.921875 24.414062 C 64.945312 24.332031 65.761719 23.160156 65.742188 21.804688 C 65.722656 20.070312 65.699219 18.464844 65.675781 16.765625 L 65.652344 15.308594 C 65.644531 14.742188 65.636719 14.152344 65.519531 13.707031 C 65.378906 13.15625 65.074219 12.878906 64.617188 12.878906 Z M 64.617188 13.085938 C 65.402344 13.085938 65.425781 14.140625 65.445312 15.3125 C 65.476562 17.527344 65.507812 19.574219 65.535156 21.808594 C 65.550781 23.042969 64.824219 24.132812 63.90625 24.207031 C 62.578125 24.320312 61.246094 24.390625 59.914062 24.421875 L 59.882812 24.421875 C 58.976562 24.421875 58.246094 23.445312 58.246094 22.246094 C 58.246094 20.050781 58.246094 18.035156 58.246094 15.839844 C 58.246094 14.628906 58.269531 13.644531 59.167969 13.613281 C 60.476562 13.566406 63.203125 13.246094 64.503906 13.09375 C 64.542969 13.089844 64.582031 13.085938 64.617188 13.085938 " fill-opacity="1" fill-rule="nonzero"/></g></g><g clip-path="url(#6727d47dca)"><g clip-path="url(#5e8008d48f)"><path fill="#ffffff" d="M 67.082031 23.859375 C 66.195312 23.859375 65.488281 22.921875 65.472656 21.726562 C 65.445312 19.496094 65.414062 17.273438 65.382812 15.058594 L 65.382812 14.984375 C 65.367188 13.773438 65.351562 12.820312 66.3125 12.636719 C 67.546875 12.402344 70.394531 11.816406 71.703125 11.453125 C 71.8125 11.425781 71.910156 11.410156 71.996094 11.410156 C 72.644531 11.410156 72.65625 12.164062 72.675781 13.113281 C 72.675781 13.214844 72.679688 13.324219 72.679688 13.429688 C 72.738281 15.671875 72.796875 17.9375 72.851562 20.21875 C 72.886719 21.554688 72.148438 22.832031 71.210938 23.066406 C 69.964844 23.382812 68.675781 23.636719 67.273438 23.847656 C 67.210938 23.855469 67.144531 23.859375 67.082031 23.859375 " fill-opacity="1" fill-rule="nonzero"/></g></g><g clip-path="url(#04b7a97042)"><g clip-path="url(#67ea07bdd2)"><path fill="#ffbd59" d="M 71.996094 11.304688 C 71.898438 11.304688 71.792969 11.320312 71.675781 11.355469 C 70.386719 11.710938 67.488281 12.308594 66.292969 12.535156 C 65.246094 12.734375 65.261719 13.777344 65.277344 14.984375 L 65.28125 15.058594 C 65.316406 17.621094 65.34375 19.742188 65.371094 21.730469 C 65.386719 22.984375 66.136719 23.964844 67.082031 23.964844 C 67.152344 23.964844 67.21875 23.960938 67.289062 23.949219 C 68.695312 23.738281 69.984375 23.484375 71.238281 23.167969 C 72.21875 22.921875 72.992188 21.597656 72.957031 20.21875 C 72.894531 17.769531 72.839844 15.550781 72.785156 13.429688 C 72.78125 13.320312 72.78125 13.214844 72.777344 13.113281 C 72.761719 12.144531 72.746094 11.304688 71.996094 11.304688 Z M 71.996094 11.515625 C 72.597656 11.515625 72.550781 12.332031 72.578125 13.433594 C 72.636719 15.675781 72.691406 17.9375 72.746094 20.222656 C 72.78125 21.484375 72.085938 22.742188 71.1875 22.964844 C 69.886719 23.292969 68.578125 23.546875 67.257812 23.742188 C 67.199219 23.75 67.140625 23.753906 67.082031 23.753906 C 66.253906 23.753906 65.59375 22.875 65.578125 21.726562 C 65.550781 19.496094 65.519531 17.273438 65.488281 15.054688 C 65.472656 13.832031 65.441406 12.910156 66.332031 12.742188 C 67.621094 12.496094 70.457031 11.90625 71.734375 11.554688 C 71.832031 11.527344 71.917969 11.515625 71.996094 11.515625 " fill-opacity="1" fill-rule="nonzero"/></g></g><g clip-path="url(#29510b19f5)"><g clip-path="url(#ab315fd6a8)"><path fill="#ffffff" d="M 73.980469 22.234375 C 73.207031 22.234375 72.625 21.421875 72.597656 20.304688 C 72.542969 18.019531 72.488281 15.757812 72.429688 13.515625 C 72.390625 12.039062 72.835938 11.027344 73.652344 10.742188 C 74.445312 10.460938 77.035156 9.449219 78.707031 8.699219 C 78.839844 8.640625 78.949219 8.613281 79.046875 8.613281 C 79.15625 8.613281 79.25 8.648438 79.320312 8.722656 C 79.523438 8.929688 79.511719 9.390625 79.5 9.976562 C 79.496094 10.203125 79.492188 10.4375 79.496094 10.679688 C 79.558594 12.835938 79.617188 15.007812 79.679688 17.207031 C 79.714844 18.496094 79.039062 19.941406 78.167969 20.429688 C 76.996094 21.085938 75.726562 21.667969 74.398438 22.15625 C 74.257812 22.207031 74.117188 22.234375 73.980469 22.234375 " fill-opacity="1" fill-rule="nonzero"/></g></g><g clip-path="url(#5565893ce2)"><g clip-path="url(#c94f25c531)"><path fill="#ffbd59" d="M 79.046875 8.507812 C 78.933594 8.507812 78.808594 8.539062 78.667969 8.601562 C 76.996094 9.351562 74.410156 10.363281 73.617188 10.644531 C 72.757812 10.945312 72.285156 11.992188 72.324219 13.519531 C 72.382812 15.761719 72.4375 18.023438 72.496094 20.308594 C 72.523438 21.484375 73.148438 22.335938 73.980469 22.335938 C 74.128906 22.335938 74.28125 22.308594 74.433594 22.253906 C 75.765625 21.761719 77.039062 21.179688 78.21875 20.523438 C 79.121094 20.015625 79.820312 18.527344 79.785156 17.203125 C 79.722656 15.007812 79.660156 12.832031 79.601562 10.675781 C 79.59375 10.4375 79.601562 10.203125 79.605469 9.976562 C 79.617188 9.34375 79.628906 8.886719 79.394531 8.648438 C 79.304688 8.558594 79.183594 8.507812 79.046875 8.507812 Z M 79.046875 8.71875 C 79.542969 8.71875 79.363281 9.660156 79.394531 10.683594 C 79.453125 12.835938 79.511719 15.011719 79.574219 17.210938 C 79.609375 18.417969 78.964844 19.863281 78.117188 20.339844 C 76.890625 21.023438 75.632812 21.589844 74.359375 22.058594 C 74.230469 22.105469 74.101562 22.128906 73.980469 22.128906 C 73.277344 22.128906 72.730469 21.375 72.703125 20.304688 C 72.648438 18.019531 72.589844 15.757812 72.535156 13.511719 C 72.503906 12.273438 72.816406 11.144531 73.683594 10.839844 C 74.5 10.554688 77.097656 9.535156 78.75 8.792969 C 78.867188 8.742188 78.964844 8.71875 79.046875 8.71875 " fill-opacity="1" fill-rule="nonzero"/></g></g><g clip-path="url(#810a746a6d)"><g clip-path="url(#04e7b42e6f)"><path fill="#ffffff" d="M 57.285156 13.710938 C 55.703125 13.648438 52.25 13.203125 51.863281 13.152344 C 50.828125 13.011719 50.867188 11.417969 50.914062 9.570312 C 50.953125 7.839844 50.992188 7.480469 51.03125 7.132812 C 51.070312 6.789062 51.113281 6.433594 51.152344 4.714844 C 51.199219 2.726562 51.972656 1.164062 52.90625 1.160156 L 56.675781 1.160156 C 57.613281 1.160156 58.347656 2.777344 58.351562 4.839844 L 58.351562 10.066406 C 58.351562 11.0625 58.34375 11.9375 58.21875 12.585938 C 58.078125 13.34375 57.78125 13.710938 57.320312 13.710938 C 57.320312 13.710938 57.296875 13.710938 57.285156 13.710938 " fill-opacity="1" fill-rule="nonzero"/></g></g><g clip-path="url(#b542d24135)"><g clip-path="url(#68d9c92d45)"><path fill="#ffbd59" d="M 56.675781 1.054688 L 52.90625 1.054688 C 51.914062 1.058594 51.097656 2.667969 51.046875 4.710938 C 51.007812 6.429688 50.96875 6.78125 50.929688 7.121094 C 50.890625 7.46875 50.847656 7.832031 50.808594 9.566406 C 50.761719 11.464844 50.722656 13.101562 51.847656 13.253906 C 52.238281 13.308594 55.695312 13.753906 57.28125 13.816406 C 57.292969 13.816406 57.304688 13.816406 57.320312 13.816406 C 58.09375 13.816406 58.265625 12.90625 58.324219 12.605469 C 58.445312 11.949219 58.457031 11.066406 58.453125 10.066406 L 58.453125 4.839844 C 58.453125 2.71875 57.671875 1.054688 56.675781 1.054688 Z M 56.675781 1.261719 C 57.539062 1.261719 58.242188 2.867188 58.246094 4.839844 C 58.246094 8.414062 58.246094 6.492188 58.246094 10.066406 C 58.246094 12.019531 58.210938 13.605469 57.320312 13.605469 L 57.289062 13.605469 C 55.953125 13.554688 53.203125 13.222656 51.878906 13.046875 C 50.960938 12.921875 50.972656 11.472656 51.015625 9.570312 C 51.097656 6.121094 51.175781 8.167969 51.257812 4.714844 C 51.304688 2.816406 52.042969 1.269531 52.90625 1.261719 C 54.164062 1.261719 55.417969 1.261719 56.675781 1.261719 " fill-opacity="1" fill-rule="nonzero"/></g></g><g clip-path="url(#1522fcb8ff)"><g clip-path="url(#537b6d47f7)"><path fill="#ffffff" d="M 50.1875 12.921875 C 50.132812 12.921875 50.074219 12.917969 50.015625 12.902344 C 49.617188 12.820312 46.066406 12.070312 44.554688 11.601562 C 43.664062 11.316406 43.71875 10.074219 43.792969 8.5 C 43.800781 8.363281 43.804688 8.222656 43.8125 8.085938 L 44.195312 4.335938 C 44.269531 2.570312 45.0625 1.171875 45.996094 1.160156 L 49.765625 1.160156 C 50.023438 1.160156 50.265625 1.273438 50.484375 1.496094 C 51.046875 2.074219 51.390625 3.335938 51.359375 4.71875 C 51.320312 6.449219 51.28125 6.808594 51.242188 7.15625 C 51.203125 7.5 51.160156 7.851562 51.121094 9.574219 L 51.121094 9.59375 C 51.078125 11.453125 51.046875 12.921875 50.1875 12.921875 " fill-opacity="1" fill-rule="nonzero"/></g></g><g clip-path="url(#25a4653045)"><g clip-path="url(#367de4cb3c)"><path fill="#ffbd59" d="M 49.769531 1.054688 L 46 1.054688 C 45.003906 1.066406 44.167969 2.503906 44.09375 4.332031 L 43.707031 8.066406 L 43.707031 8.078125 C 43.703125 8.21875 43.695312 8.359375 43.6875 8.492188 C 43.617188 10.046875 43.554688 11.390625 44.523438 11.703125 C 46.039062 12.171875 49.59375 12.921875 49.992188 13.007812 C 50.058594 13.019531 50.125 13.027344 50.1875 13.027344 C 51.148438 13.027344 51.183594 11.515625 51.226562 9.597656 L 51.226562 9.578125 C 51.265625 7.859375 51.304688 7.507812 51.34375 7.167969 C 51.382812 6.816406 51.425781 6.457031 51.464844 4.71875 C 51.496094 3.292969 51.148438 2.027344 50.558594 1.421875 C 50.320312 1.179688 50.050781 1.054688 49.769531 1.054688 Z M 49.769531 1.261719 C 50.632812 1.261719 51.300781 2.808594 51.257812 4.714844 C 51.175781 8.167969 51.097656 6.121094 51.015625 9.570312 C 50.976562 11.371094 50.949219 12.820312 50.1875 12.820312 C 50.140625 12.820312 50.089844 12.8125 50.035156 12.800781 C 48.726562 12.527344 45.875 11.902344 44.585938 11.503906 C 43.699219 11.21875 43.84375 9.78125 43.917969 8.089844 L 44.300781 4.34375 C 44.371094 2.65625 45.132812 1.273438 46 1.261719 C 47.253906 1.261719 48.511719 1.261719 49.765625 1.261719 L 49.769531 1.261719 " fill-opacity="1" fill-rule="nonzero"/></g></g><g clip-path="url(#e6e0bc09ed)"><g clip-path="url(#ea35c5f2bf)"><path fill="#ffffff" d="M 56.578125 24.523438 C 55.210938 24.492188 53.863281 24.421875 52.578125 24.3125 C 51.609375 24.230469 50.835938 23.105469 50.851562 21.804688 C 50.875 19.957031 50.902344 18.230469 50.925781 16.433594 L 50.941406 15.308594 C 50.960938 14.164062 50.976562 12.980469 51.875 12.980469 C 51.914062 12.980469 51.957031 12.984375 52 12.988281 C 53.195312 13.132812 55.992188 13.460938 57.324219 13.507812 C 58.347656 13.542969 58.347656 14.660156 58.351562 15.839844 L 58.351562 22.246094 C 58.351562 22.847656 58.171875 23.417969 57.851562 23.847656 C 57.523438 24.285156 57.082031 24.523438 56.609375 24.523438 L 56.578125 24.523438 " fill-opacity="1" fill-rule="nonzero"/></g></g><g clip-path="url(#0f6597ad25)"><g clip-path="url(#f7f0a55f40)"><path fill="#ffbd59" d="M 51.875 12.878906 C 51.417969 12.878906 51.113281 13.15625 50.96875 13.707031 C 50.855469 14.152344 50.847656 14.738281 50.839844 15.308594 L 50.824219 16.429688 C 50.796875 18.242188 50.769531 19.953125 50.746094 21.804688 C 50.730469 23.160156 51.546875 24.332031 52.570312 24.414062 C 53.859375 24.523438 55.203125 24.597656 56.574219 24.628906 C 56.585938 24.628906 56.597656 24.628906 56.609375 24.628906 C 57.113281 24.628906 57.585938 24.375 57.933594 23.910156 C 58.269531 23.460938 58.457031 22.871094 58.453125 22.246094 L 58.453125 15.839844 C 58.453125 14.660156 58.453125 13.445312 57.328125 13.40625 C 56 13.359375 53.105469 13.015625 52.015625 12.886719 C 51.964844 12.878906 51.917969 12.878906 51.875 12.878906 Z M 51.875 13.085938 C 51.910156 13.085938 51.949219 13.089844 51.988281 13.09375 C 53.289062 13.246094 56.015625 13.566406 57.324219 13.613281 C 58.222656 13.644531 58.246094 14.628906 58.246094 15.839844 C 58.246094 18.035156 58.246094 20.050781 58.246094 22.246094 C 58.246094 23.445312 57.515625 24.421875 56.609375 24.421875 L 56.578125 24.421875 C 55.246094 24.390625 53.914062 24.320312 52.585938 24.207031 C 51.667969 24.132812 50.941406 23.042969 50.957031 21.808594 C 50.984375 19.574219 51.015625 17.527344 51.046875 15.3125 C 51.066406 14.140625 51.089844 13.085938 51.875 13.085938 " fill-opacity="1" fill-rule="nonzero"/></g></g><g clip-path="url(#0bf331d9d1)"><g clip-path="url(#9de0fcf3d1)"><path fill="#ffffff" d="M 49.410156 23.859375 C 49.347656 23.859375 49.28125 23.855469 49.21875 23.847656 C 47.816406 23.636719 46.527344 23.382812 45.28125 23.066406 C 44.339844 22.832031 43.605469 21.554688 43.640625 20.21875 C 43.695312 17.9375 43.753906 15.671875 43.808594 13.429688 C 43.8125 13.324219 43.816406 13.21875 43.816406 13.113281 C 43.835938 12.164062 43.847656 11.410156 44.496094 11.410156 C 44.582031 11.410156 44.679688 11.425781 44.785156 11.453125 C 46.082031 11.8125 48.984375 12.410156 50.179688 12.636719 C 51.140625 12.820312 51.125 13.773438 51.109375 14.984375 L 51.109375 15.058594 C 51.074219 17.273438 51.046875 19.496094 51.015625 21.726562 C 51.003906 22.921875 50.296875 23.859375 49.410156 23.859375 " fill-opacity="1" fill-rule="nonzero"/></g></g><g clip-path="url(#e1adfca273)"><g clip-path="url(#4e6a590bd7)"><path fill="#ffbd59" d="M 44.496094 11.304688 C 43.746094 11.304688 43.730469 12.144531 43.710938 13.113281 C 43.710938 13.214844 43.707031 13.320312 43.707031 13.429688 C 43.652344 15.507812 43.597656 17.726562 43.535156 20.21875 C 43.5 21.601562 44.273438 22.921875 45.253906 23.167969 C 46.507812 23.484375 47.796875 23.738281 49.203125 23.949219 C 49.269531 23.960938 49.339844 23.964844 49.410156 23.964844 C 50.355469 23.964844 51.105469 22.984375 51.121094 21.730469 C 51.148438 19.601562 51.179688 17.417969 51.210938 15.058594 L 51.214844 14.984375 C 51.230469 13.777344 51.246094 12.734375 50.199219 12.535156 C 49.007812 12.308594 46.105469 11.710938 44.816406 11.355469 C 44.699219 11.320312 44.59375 11.304688 44.496094 11.304688 Z M 44.496094 11.515625 C 44.574219 11.515625 44.660156 11.527344 44.757812 11.554688 C 46.035156 11.90625 48.867188 12.496094 50.160156 12.742188 C 51.050781 12.910156 51.019531 13.832031 51.003906 15.054688 C 50.972656 17.273438 50.941406 19.496094 50.914062 21.726562 C 50.898438 22.875 50.238281 23.753906 49.410156 23.753906 C 49.351562 23.753906 49.292969 23.75 49.234375 23.742188 C 47.914062 23.546875 46.601562 23.292969 45.304688 22.964844 C 44.40625 22.742188 43.710938 21.484375 43.742188 20.222656 C 43.800781 17.9375 43.855469 15.675781 43.914062 13.433594 C 43.941406 12.332031 43.890625 11.515625 44.496094 11.515625 " fill-opacity="1" fill-rule="nonzero"/></g></g><g clip-path="url(#af03853261)"><g clip-path="url(#b22bfa6839)"><path fill="#ffffff" d="M 42.511719 22.234375 C 42.375 22.234375 42.234375 22.207031 42.09375 22.15625 C 40.765625 21.664062 39.496094 21.085938 38.324219 20.429688 C 37.453125 19.941406 36.773438 18.496094 36.8125 17.207031 C 36.875 15.007812 36.933594 12.835938 36.996094 10.679688 C 37 10.4375 36.996094 10.203125 36.992188 9.976562 C 36.980469 9.390625 36.96875 8.929688 37.171875 8.722656 C 37.242188 8.648438 37.335938 8.613281 37.445312 8.613281 C 37.542969 8.613281 37.652344 8.640625 37.78125 8.699219 C 39.457031 9.449219 42.046875 10.460938 42.839844 10.742188 C 43.652344 11.027344 44.097656 12.039062 44.0625 13.515625 C 44.003906 15.757812 43.949219 18.019531 43.890625 20.304688 C 43.867188 21.421875 43.285156 22.234375 42.511719 22.234375 " fill-opacity="1" fill-rule="nonzero"/></g></g><g clip-path="url(#19f0466cec)"><g clip-path="url(#50802affe2)"><path fill="#ffbd59" d="M 37.445312 8.507812 C 37.308594 8.507812 37.1875 8.558594 37.097656 8.648438 C 36.863281 8.886719 36.875 9.34375 36.886719 9.976562 C 36.890625 10.203125 36.898438 10.4375 36.890625 10.675781 C 36.832031 12.832031 36.769531 15.007812 36.707031 17.203125 C 36.667969 18.527344 37.371094 20.015625 38.269531 20.519531 C 39.449219 21.179688 40.726562 21.761719 42.058594 22.253906 C 42.210938 22.308594 42.363281 22.335938 42.511719 22.335938 C 43.34375 22.335938 43.96875 21.484375 43.996094 20.308594 C 44.050781 18.023438 44.109375 15.761719 44.167969 13.519531 C 44.207031 11.992188 43.734375 10.945312 42.875 10.644531 C 42.082031 10.363281 39.496094 9.351562 37.828125 8.601562 C 37.683594 8.539062 37.558594 8.507812 37.445312 8.507812 Z M 37.445312 8.71875 C 37.527344 8.71875 37.625 8.742188 37.742188 8.792969 C 39.394531 9.535156 41.988281 10.554688 42.804688 10.839844 C 43.675781 11.144531 43.988281 12.273438 43.957031 13.511719 C 43.902344 15.757812 43.84375 18.019531 43.789062 20.304688 C 43.761719 21.375 43.214844 22.128906 42.511719 22.128906 C 42.390625 22.128906 42.261719 22.105469 42.132812 22.058594 C 40.859375 21.589844 39.601562 21.023438 38.375 20.339844 C 37.527344 19.863281 36.882812 18.417969 36.914062 17.210938 C 36.976562 15.011719 37.039062 12.835938 37.097656 10.683594 C 37.128906 9.660156 36.949219 8.71875 37.445312 8.71875 " fill-opacity="1" fill-rule="nonzero"/></g></g><path fill="#ffbd59" d="M 38.449219 2.84375 L 38.089844 3.117188 C 38.136719 3.175781 38.316406 3.386719 38.8125 3.664062 C 39.5625 4.085938 41.023438 4.675781 43.867188 5.171875 C 46.707031 5.664062 50.929688 6.0625 57.195312 6.082031 C 57.3125 6.085938 57.425781 6.085938 57.542969 6.085938 C 71.265625 6.085938 76.664062 3.28125 76.734375 3.246094 L 76.523438 2.84375 L 76.070312 2.820312 L 76.070312 2.824219 C 76.070312 2.882812 76 4.148438 75.632812 6.007812 C 75.355469 7.402344 74.910156 9.128906 74.203125 10.929688 C 73.140625 13.632812 71.488281 16.492188 68.933594 18.667969 C 67.65625 19.757812 66.152344 20.675781 64.375 21.328125 C 62.601562 21.976562 60.550781 22.355469 58.171875 22.355469 C 53.910156 22.355469 50.609375 21.140625 48.015625 19.320312 C 46.070312 17.953125 44.527344 16.242188 43.304688 14.433594 C 41.46875 11.726562 40.363281 8.808594 39.722656 6.570312 C 39.402344 5.449219 39.195312 4.5 39.070312 3.832031 C 39.007812 3.5 38.964844 3.238281 38.9375 3.058594 C 38.925781 2.96875 38.914062 2.902344 38.910156 2.855469 C 38.90625 2.835938 38.902344 2.816406 38.902344 2.804688 L 38.898438 2.792969 L 38.449219 2.84375 L 38.089844 3.117188 L 38.449219 2.84375 L 38 2.894531 C 38.007812 2.929688 38.589844 7.964844 41.394531 13.046875 C 42.796875 15.585938 44.757812 18.136719 47.492188 20.0625 C 50.226562 21.984375 53.738281 23.265625 58.171875 23.261719 C 62.605469 23.265625 66.035156 21.984375 68.644531 20.054688 C 70.601562 18.609375 72.097656 16.808594 73.242188 14.925781 C 74.960938 12.101562 75.890625 9.09375 76.394531 6.789062 C 76.898438 4.488281 76.976562 2.882812 76.976562 2.867188 L 77.015625 2.074219 L 76.3125 2.441406 L 76.398438 2.605469 L 76.3125 2.441406 L 76.398438 2.605469 L 76.3125 2.441406 C 76.300781 2.449219 71.039062 5.179688 57.542969 5.179688 C 57.425781 5.179688 57.3125 5.179688 57.199219 5.179688 C 48.890625 5.152344 44.238281 4.453125 41.691406 3.777344 C 40.417969 3.441406 39.671875 3.109375 39.257812 2.875 C 39.050781 2.761719 38.929688 2.667969 38.863281 2.613281 C 38.828125 2.585938 38.8125 2.566406 38.804688 2.558594 L 38.800781 2.554688 L 38.632812 2.707031 L 38.808594 2.570312 L 38.800781 2.554688 L 38.632812 2.707031 L 38.808594 2.570312 L 37.808594 1.257812 L 38 2.894531 L 38.449219 2.84375 " fill-opacity="1" fill-rule="nonzero"/><g clip-path="url(#e9079c74a6)"><path fill="#ffbd59" d="M 39.871094 0 C 39.871094 0 39.785156 0.0664062 39.632812 0.175781 C 39.59375 0.203125 39.554688 0.234375 39.507812 0.265625 C 39.460938 0.296875 39.414062 0.335938 39.367188 0.375 C 39.265625 0.449219 39.152344 0.53125 39.035156 0.628906 C 38.976562 0.675781 38.914062 0.726562 38.851562 0.777344 C 38.789062 0.832031 38.726562 0.886719 38.664062 0.941406 C 38.527344 1.050781 38.40625 1.183594 38.269531 1.304688 C 38.148438 1.445312 38.011719 1.574219 37.894531 1.726562 C 37.769531 1.867188 37.660156 2.027344 37.542969 2.183594 C 37.492188 2.265625 37.4375 2.347656 37.382812 2.429688 C 37.320312 2.523438 37.285156 2.597656 37.238281 2.679688 C 37.144531 2.832031 37.070312 3.007812 36.984375 3.171875 C 36.917969 3.339844 36.832031 3.5 36.78125 3.664062 C 36.75 3.746094 36.71875 3.824219 36.691406 3.898438 C 36.667969 3.976562 36.644531 4.050781 36.621094 4.125 C 36.566406 4.269531 36.53125 4.40625 36.496094 4.527344 C 36.476562 4.585938 36.460938 4.644531 36.445312 4.695312 C 36.429688 4.75 36.417969 4.800781 36.40625 4.84375 C 36.355469 5.023438 36.320312 5.128906 36.320312 5.128906 C 36.320312 5.128906 36.292969 5.023438 36.257812 4.839844 C 36.25 4.792969 36.238281 4.738281 36.230469 4.683594 C 36.222656 4.625 36.21875 4.566406 36.210938 4.5 C 36.199219 4.367188 36.1875 4.21875 36.195312 4.054688 C 36.199219 3.972656 36.203125 3.886719 36.207031 3.800781 C 36.214844 3.710938 36.230469 3.621094 36.242188 3.527344 C 36.261719 3.335938 36.320312 3.144531 36.371094 2.941406 C 36.402344 2.84375 36.4375 2.742188 36.476562 2.640625 C 36.507812 2.539062 36.558594 2.4375 36.609375 2.335938 C 36.660156 2.238281 36.707031 2.121094 36.765625 2.039062 C 36.824219 1.949219 36.878906 1.855469 36.9375 1.761719 C 37.074219 1.585938 37.207031 1.402344 37.363281 1.246094 C 37.441406 1.167969 37.515625 1.085938 37.597656 1.019531 C 37.679688 0.949219 37.761719 0.878906 37.84375 0.816406 C 38.015625 0.695312 38.175781 0.574219 38.34375 0.488281 C 38.425781 0.445312 38.507812 0.398438 38.585938 0.359375 C 38.667969 0.324219 38.746094 0.292969 38.824219 0.261719 C 38.972656 0.195312 39.117188 0.152344 39.246094 0.117188 C 39.308594 0.0976562 39.371094 0.0820312 39.425781 0.0664062 C 39.480469 0.0585938 39.53125 0.046875 39.578125 0.0390625 C 39.761719 0.0078125 39.871094 0 39.871094 0 " fill-opacity="1" fill-rule="nonzero"/></g><g clip-path="url(#2510992cc8)"><path fill="#ffbd59" d="M 75.132812 0.914062 C 75.132812 0.914062 75.238281 0.925781 75.425781 0.953125 C 75.46875 0.964844 75.519531 0.972656 75.578125 0.980469 C 75.632812 0.996094 75.691406 1.011719 75.753906 1.03125 C 75.882812 1.066406 76.03125 1.109375 76.179688 1.175781 C 76.253906 1.207031 76.332031 1.242188 76.414062 1.273438 C 76.492188 1.316406 76.574219 1.359375 76.65625 1.402344 C 76.828125 1.488281 76.988281 1.613281 77.160156 1.730469 C 77.242188 1.792969 77.320312 1.863281 77.402344 1.933594 C 77.488281 2.003906 77.5625 2.082031 77.636719 2.164062 C 77.796875 2.316406 77.925781 2.5 78.0625 2.675781 C 78.121094 2.769531 78.179688 2.863281 78.234375 2.957031 C 78.292969 3.035156 78.339844 3.152344 78.390625 3.25 C 78.441406 3.351562 78.492188 3.457031 78.523438 3.558594 C 78.5625 3.65625 78.597656 3.757812 78.632812 3.855469 C 78.679688 4.058594 78.738281 4.25 78.757812 4.441406 C 78.769531 4.535156 78.785156 4.625 78.792969 4.714844 C 78.796875 4.800781 78.800781 4.886719 78.804688 4.96875 C 78.8125 5.132812 78.800781 5.28125 78.789062 5.414062 C 78.78125 5.480469 78.777344 5.542969 78.773438 5.597656 C 78.761719 5.652344 78.753906 5.707031 78.742188 5.753906 C 78.707031 5.9375 78.679688 6.042969 78.679688 6.042969 C 78.679688 6.042969 78.644531 5.9375 78.59375 5.757812 C 78.582031 5.714844 78.570312 5.664062 78.558594 5.613281 C 78.542969 5.558594 78.523438 5.503906 78.503906 5.441406 C 78.46875 5.320312 78.433594 5.183594 78.382812 5.039062 C 78.359375 4.964844 78.335938 4.890625 78.308594 4.8125 C 78.28125 4.738281 78.25 4.660156 78.21875 4.578125 C 78.167969 4.417969 78.085938 4.257812 78.019531 4.085938 C 77.933594 3.925781 77.855469 3.746094 77.761719 3.59375 C 77.714844 3.511719 77.679688 3.4375 77.617188 3.347656 C 77.5625 3.261719 77.511719 3.179688 77.457031 3.097656 C 77.339844 2.941406 77.230469 2.78125 77.105469 2.640625 C 76.988281 2.488281 76.851562 2.359375 76.730469 2.222656 C 76.59375 2.097656 76.472656 1.964844 76.339844 1.859375 C 76.273438 1.800781 76.210938 1.746094 76.152344 1.691406 C 76.085938 1.640625 76.023438 1.589844 75.964844 1.542969 C 75.847656 1.445312 75.734375 1.363281 75.636719 1.289062 C 75.585938 1.25 75.539062 1.214844 75.496094 1.179688 C 75.449219 1.148438 75.40625 1.117188 75.367188 1.089844 C 75.214844 0.980469 75.132812 0.914062 75.132812 0.914062 " fill-opacity="1" fill-rule="nonzero"/></g><g clip-path="url(#bded1362f5)"><path fill="#ffbd59" d="M 51.140625 24.382812 C 51.140625 24.382812 51.191406 24.398438 51.28125 24.429688 C 51.375 24.464844 51.511719 24.511719 51.679688 24.574219 C 51.765625 24.605469 51.859375 24.644531 51.960938 24.679688 C 52.066406 24.710938 52.175781 24.746094 52.296875 24.785156 C 52.414062 24.824219 52.539062 24.867188 52.671875 24.910156 C 52.808594 24.949219 52.949219 24.988281 53.097656 25.03125 C 53.246094 25.070312 53.398438 25.117188 53.558594 25.15625 C 53.71875 25.195312 53.882812 25.230469 54.054688 25.273438 C 54.140625 25.289062 54.226562 25.3125 54.3125 25.332031 C 54.402344 25.347656 54.492188 25.363281 54.582031 25.378906 C 54.761719 25.410156 54.945312 25.449219 55.132812 25.480469 C 55.320312 25.503906 55.511719 25.527344 55.707031 25.554688 C 55.898438 25.585938 56.097656 25.589844 56.296875 25.609375 C 56.492188 25.625 56.695312 25.644531 56.894531 25.644531 C 57.09375 25.652344 57.292969 25.65625 57.492188 25.664062 C 57.902344 25.648438 58.324219 25.648438 58.710938 25.609375 C 58.90625 25.589844 59.101562 25.585938 59.292969 25.554688 C 59.488281 25.527344 59.679688 25.503906 59.867188 25.476562 C 60.054688 25.449219 60.238281 25.410156 60.417969 25.378906 C 60.507812 25.363281 60.597656 25.347656 60.6875 25.332031 C 60.773438 25.3125 60.859375 25.289062 60.945312 25.269531 C 61.117188 25.230469 61.28125 25.191406 61.441406 25.15625 C 61.601562 25.117188 61.753906 25.070312 61.902344 25.03125 C 62.050781 24.988281 62.195312 24.949219 62.328125 24.910156 C 62.460938 24.863281 62.585938 24.824219 62.707031 24.785156 C 62.824219 24.746094 62.9375 24.707031 63.042969 24.675781 C 63.144531 24.640625 63.238281 24.605469 63.320312 24.574219 C 63.660156 24.449219 63.859375 24.382812 63.859375 24.382812 C 63.859375 24.382812 63.6875 24.496094 63.371094 24.683594 C 63.292969 24.726562 63.207031 24.78125 63.109375 24.835938 C 63.015625 24.886719 62.90625 24.9375 62.792969 24.996094 C 62.679688 25.054688 62.558594 25.113281 62.429688 25.179688 C 62.300781 25.242188 62.160156 25.292969 62.015625 25.355469 C 61.871094 25.414062 61.722656 25.480469 61.5625 25.539062 C 61.402344 25.59375 61.234375 25.648438 61.0625 25.707031 C 60.976562 25.734375 60.890625 25.765625 60.800781 25.789062 C 60.710938 25.8125 60.621094 25.835938 60.527344 25.859375 C 60.34375 25.910156 60.15625 25.957031 59.964844 26 C 59.574219 26.070312 59.175781 26.15625 58.753906 26.1875 C 58.332031 26.246094 57.925781 26.242188 57.507812 26.261719 C 57.296875 26.253906 57.082031 26.246094 56.867188 26.238281 C 56.65625 26.238281 56.449219 26.207031 56.242188 26.1875 C 55.828125 26.152344 55.425781 26.070312 55.039062 26 C 54.84375 25.957031 54.65625 25.90625 54.472656 25.859375 C 54.378906 25.835938 54.289062 25.8125 54.199219 25.789062 C 54.109375 25.765625 54.023438 25.734375 53.9375 25.707031 C 53.765625 25.648438 53.601562 25.59375 53.441406 25.539062 C 53.28125 25.480469 53.128906 25.414062 52.984375 25.355469 C 52.839844 25.292969 52.699219 25.238281 52.570312 25.179688 C 52.441406 25.113281 52.320312 25.050781 52.207031 24.996094 C 52.09375 24.9375 51.984375 24.886719 51.886719 24.835938 C 51.792969 24.78125 51.707031 24.726562 51.628906 24.679688 C 51.472656 24.589844 51.351562 24.511719 51.269531 24.460938 C 51.183594 24.410156 51.140625 24.382812 51.140625 24.382812 " fill-opacity="1" fill-rule="nonzero"/></g><g clip-path="url(#620176cbf5)"><g clip-path="url(#d6db2c0bf9)"><g clip-path="url(#da9a5ff5d7)"><path fill="#ffbd59" d="M 65.753906 23.265625 C 65.679688 23.328125 65.570312 23.328125 65.429688 23.269531 C 65.289062 23.207031 65.15625 23.105469 65.027344 22.957031 C 64.902344 22.808594 64.820312 22.65625 64.785156 22.507812 C 64.75 22.359375 64.769531 22.253906 64.84375 22.191406 C 64.917969 22.125 65.023438 22.125 65.167969 22.1875 C 65.308594 22.246094 65.441406 22.351562 65.566406 22.5 C 65.691406 22.648438 65.773438 22.796875 65.808594 22.945312 C 65.847656 23.09375 65.828125 23.199219 65.753906 23.265625 Z M 65.753906 23.265625 " fill-opacity="1" fill-rule="nonzero"/></g></g></g><g fill="#ffbd59" fill-opacity="1"><g transform="translate(35.595837, 23.955151)"><g><path d="M 1.890625 0.59375 C 2.210938 1.207031 2.492188 1.585938 2.734375 1.734375 C 2.921875 1.859375 3.132812 1.910156 3.375 1.890625 C 3.613281 1.878906 3.816406 1.816406 3.984375 1.703125 C 4.160156 1.597656 4.289062 1.515625 4.375 1.453125 C 4.457031 1.398438 4.554688 1.304688 4.671875 1.171875 C 4.785156 1.035156 4.863281 0.90625 4.90625 0.78125 C 4.945312 0.5 4.890625 0.21875 4.734375 -0.0625 C 4.578125 -0.34375 4.382812 -0.570312 4.15625 -0.75 C 3.9375 -0.925781 3.738281 -1.023438 3.5625 -1.046875 C 2.625 -0.109375 2.066406 0.4375 1.890625 0.59375 Z M 4.1875 -1.65625 C 4.53125 -1.375 4.832031 -1.039062 5.09375 -0.65625 C 5.363281 -0.269531 5.554688 0.09375 5.671875 0.4375 C 5.796875 0.832031 5.785156 1.207031 5.640625 1.5625 C 5.492188 1.914062 5.257812 2.207031 4.9375 2.4375 C 4.601562 2.664062 4.242188 2.796875 3.859375 2.828125 C 3.472656 2.859375 3.109375 2.757812 2.765625 2.53125 C 2.441406 2.3125 2.128906 1.992188 1.828125 1.578125 C 1.828125 1.578125 1.769531 1.507812 1.65625 1.375 C 1.539062 1.238281 1.460938 1.132812 1.421875 1.0625 C 1.347656 1.132812 1.226562 1.117188 1.0625 1.015625 C 0.894531 0.910156 0.742188 0.785156 0.609375 0.640625 C 0.484375 0.503906 0.445312 0.410156 0.5 0.359375 C 0.644531 0.179688 0.984375 -0.171875 1.515625 -0.703125 C 2.054688 -1.242188 2.734375 -1.90625 3.546875 -2.6875 C 4.359375 -3.476562 4.851562 -3.960938 5.03125 -4.140625 C 5.082031 -4.191406 5.1875 -4.15625 5.34375 -4.03125 C 5.5 -3.914062 5.632812 -3.769531 5.75 -3.59375 C 5.863281 -3.425781 5.890625 -3.316406 5.828125 -3.265625 C 4.878906 -2.328125 4.332031 -1.789062 4.1875 -1.65625 Z M 4.1875 -1.65625 "/></g></g></g><g fill="#ffbd59" fill-opacity="1"><g transform="translate(40.156057, 28.737738)"><g><path d="M 1.546875 -1.640625 C 1.398438 -1.816406 1.390625 -1.992188 1.515625 -2.171875 C 1.609375 -2.316406 1.726562 -2.375 1.875 -2.34375 C 1.90625 -2.332031 1.925781 -2.320312 1.9375 -2.3125 C 1.96875 -2.289062 1.992188 -2.269531 2.015625 -2.25 C 2.273438 -2.53125 2.578125 -2.78125 2.921875 -3 C 3.429688 -3.351562 4.054688 -3.296875 4.796875 -2.828125 C 4.804688 -2.828125 4.816406 -2.820312 4.828125 -2.8125 C 5.265625 -2.519531 5.539062 -2.15625 5.65625 -1.71875 C 5.769531 -1.289062 5.726562 -0.929688 5.53125 -0.640625 C 5.5 -0.597656 5.472656 -0.5625 5.453125 -0.53125 C 5.128906 -0.132812 4.851562 0.0820312 4.625 0.125 C 4.40625 0.1875 4.097656 0.117188 3.703125 -0.078125 C 3.535156 -0.171875 3.34375 -0.285156 3.125 -0.421875 C 2.925781 -0.554688 2.707031 -0.707031 2.46875 -0.875 C 2.445312 -0.832031 2.421875 -0.785156 2.390625 -0.734375 C 2.296875 -0.597656 2.191406 -0.4375 2.078125 -0.25 C 1.953125 -0.0078125 1.910156 0.25 1.953125 0.53125 C 2.003906 0.820312 2.132812 1.039062 2.34375 1.1875 C 2.363281 1.207031 2.378906 1.21875 2.390625 1.21875 C 2.609375 1.363281 2.882812 1.394531 3.21875 1.3125 C 3.550781 1.238281 3.832031 1.09375 4.0625 0.875 C 4.09375 0.84375 4.15625 0.832031 4.25 0.84375 C 4.34375 0.863281 4.441406 0.894531 4.546875 0.9375 C 4.660156 0.976562 4.753906 1.015625 4.828125 1.046875 C 4.910156 1.078125 4.96875 1.101562 5 1.125 C 5.039062 1.15625 5.082031 1.191406 5.125 1.234375 C 5.164062 1.285156 5.175781 1.335938 5.15625 1.390625 C 5.144531 1.410156 5.132812 1.425781 5.125 1.4375 C 4.90625 1.757812 4.582031 2 4.15625 2.15625 C 3.738281 2.320312 3.34375 2.3125 2.96875 2.125 C 2.5625 1.9375 2.21875 1.75 1.9375 1.5625 C 1.363281 1.175781 1.039062 0.816406 0.96875 0.484375 C 0.832031 -0.160156 1.007812 -0.851562 1.5 -1.59375 C 1.507812 -1.613281 1.523438 -1.628906 1.546875 -1.640625 Z M 2.828125 -1.3125 C 2.960938 -1.195312 3.09375 -1.097656 3.21875 -1.015625 C 3.425781 -0.867188 3.628906 -0.78125 3.828125 -0.75 C 4.015625 -0.707031 4.175781 -0.757812 4.3125 -0.90625 C 4.445312 -1.050781 4.535156 -1.15625 4.578125 -1.21875 C 4.691406 -1.394531 4.75 -1.566406 4.75 -1.734375 C 4.769531 -1.898438 4.738281 -2.019531 4.65625 -2.09375 C 4.570312 -2.175781 4.515625 -2.222656 4.484375 -2.234375 C 4.359375 -2.328125 4.210938 -2.351562 4.046875 -2.3125 C 3.804688 -2.25 3.460938 -1.988281 3.015625 -1.53125 C 2.992188 -1.5 2.960938 -1.457031 2.921875 -1.40625 C 2.878906 -1.363281 2.847656 -1.332031 2.828125 -1.3125 Z M 2.828125 -1.3125 "/></g></g></g><g fill="#ffbd59" fill-opacity="1"><g transform="translate(45.447928, 32.025969)"><g><path d="M 1.765625 0.484375 C 1.710938 0.578125 1.59375 0.601562 1.40625 0.5625 C 1.21875 0.519531 1.039062 0.445312 0.875 0.34375 C 0.71875 0.25 0.648438 0.179688 0.671875 0.140625 C 0.742188 -0.0664062 0.953125 -0.566406 1.296875 -1.359375 C 1.640625 -2.148438 1.976562 -2.921875 2.3125 -3.671875 C 2.644531 -4.429688 2.9375 -5.097656 3.1875 -5.671875 C 3.226562 -5.742188 3.34375 -5.753906 3.53125 -5.703125 C 3.726562 -5.648438 3.910156 -5.566406 4.078125 -5.453125 C 4.242188 -5.347656 4.304688 -5.257812 4.265625 -5.1875 C 2.878906 -1.9375 2.046875 -0.046875 1.765625 0.484375 Z M 1.765625 0.484375 "/></g></g></g><g fill="#ffbd59" fill-opacity="1"><g transform="translate(48.183098, 33.324838)"><g><path d="M 6.21875 -4.421875 C 6.257812 -4.304688 6.25 -4.179688 6.1875 -4.046875 C 6.132812 -3.921875 6.0625 -3.800781 5.96875 -3.6875 C 5.875 -3.570312 5.75 -3.453125 5.59375 -3.328125 C 5.445312 -3.203125 5.304688 -3.09375 5.171875 -3 C 5.035156 -2.90625 4.894531 -2.8125 4.75 -2.71875 C 4.675781 -2.664062 4.628906 -2.632812 4.609375 -2.625 L 4.65625 -2.5625 C 5.269531 -2.101562 5.503906 -1.554688 5.359375 -0.921875 C 5.160156 -0.0859375 4.785156 0.503906 4.234375 0.859375 C 4.066406 0.953125 3.863281 1.003906 3.625 1.015625 C 3.394531 1.035156 3.179688 1.019531 2.984375 0.96875 C 2.796875 0.914062 2.609375 0.863281 2.421875 0.8125 C 1.640625 0.582031 1.148438 0.25 0.953125 -0.1875 C 0.816406 -0.5 0.742188 -0.847656 0.734375 -1.234375 C 0.734375 -1.628906 0.773438 -1.984375 0.859375 -2.296875 C 0.941406 -2.617188 1.03125 -2.9375 1.125 -3.25 C 1.15625 -3.34375 1.273438 -3.382812 1.484375 -3.375 C 1.691406 -3.363281 1.890625 -3.3125 2.078125 -3.21875 C 2.265625 -3.132812 2.34375 -3.039062 2.3125 -2.9375 C 2.101562 -2.28125 1.972656 -1.6875 1.921875 -1.15625 C 1.867188 -0.644531 1.945312 -0.269531 2.15625 -0.03125 C 2.269531 0.113281 2.414062 0.210938 2.59375 0.265625 C 2.78125 0.316406 2.988281 0.304688 3.21875 0.234375 C 3.65625 0.046875 3.953125 -0.234375 4.109375 -0.609375 C 4.296875 -1.003906 4.351562 -1.390625 4.28125 -1.765625 C 4.28125 -1.816406 4.207031 -1.953125 4.0625 -2.171875 C 3.925781 -2.398438 3.84375 -2.570312 3.8125 -2.6875 C 3.757812 -2.96875 3.894531 -3.234375 4.21875 -3.484375 C 4.570312 -3.765625 4.914062 -4.082031 5.25 -4.4375 C 5.269531 -4.457031 5.265625 -4.472656 5.234375 -4.484375 C 5.210938 -4.503906 5.164062 -4.535156 5.09375 -4.578125 C 4.445312 -4.785156 4.015625 -4.9375 3.796875 -5.03125 C 3.753906 -5.039062 3.722656 -5.050781 3.703125 -5.0625 C 3.691406 -5.0625 3.679688 -5.066406 3.671875 -5.078125 C 3.660156 -5.085938 3.65625 -5.09375 3.65625 -5.09375 C 3.488281 -5.164062 3.332031 -5.238281 3.1875 -5.3125 C 2.90625 -5.46875 2.785156 -5.609375 2.828125 -5.734375 C 2.867188 -5.828125 2.972656 -5.867188 3.140625 -5.859375 C 3.191406 -5.859375 3.238281 -5.847656 3.28125 -5.828125 C 3.882812 -5.640625 4.21875 -5.53125 4.28125 -5.5 C 4.925781 -5.289062 5.390625 -5.113281 5.671875 -4.96875 C 5.742188 -4.925781 5.8125 -4.878906 5.875 -4.828125 C 6.070312 -4.679688 6.1875 -4.546875 6.21875 -4.421875 Z M 6.21875 -4.421875 "/></g></g></g><g fill="#ffbd59" fill-opacity="1"><g transform="translate(54.435593, 34.789248)"><g><path d="M 4.640625 -0.3125 C 4.628906 -0.207031 4.429688 -0.140625 4.046875 -0.109375 C 3.984375 -0.117188 3.929688 -0.125 3.890625 -0.125 C 3.628906 -0.125 3.492188 -0.164062 3.484375 -0.25 C 3.492188 -0.351562 3.5 -0.441406 3.5 -0.515625 C 3.082031 -0.421875 2.675781 -0.375 2.28125 -0.375 C 2.09375 -0.382812 1.914062 -0.40625 1.75 -0.4375 C 1.050781 -0.539062 0.609375 -0.785156 0.421875 -1.171875 C 0.234375 -1.554688 0.144531 -1.960938 0.15625 -2.390625 C 0.15625 -2.585938 0.203125 -2.894531 0.296875 -3.3125 C 0.390625 -3.726562 0.6875 -4.054688 1.1875 -4.296875 C 1.425781 -4.410156 1.832031 -4.460938 2.40625 -4.453125 C 2.625 -4.453125 2.863281 -4.441406 3.125 -4.421875 C 3.300781 -4.398438 3.472656 -4.363281 3.640625 -4.3125 L 3.640625 -4.421875 C 3.640625 -4.453125 3.679688 -4.476562 3.765625 -4.5 C 3.847656 -4.519531 3.925781 -4.53125 4 -4.53125 C 4.070312 -4.53125 4.117188 -4.523438 4.140625 -4.515625 C 4.234375 -4.515625 4.328125 -4.507812 4.421875 -4.5 C 4.523438 -4.488281 4.617188 -4.472656 4.703125 -4.453125 C 4.785156 -4.429688 4.828125 -4.398438 4.828125 -4.359375 C 4.816406 -3.984375 4.789062 -3.273438 4.75 -2.234375 C 4.707031 -1.203125 4.671875 -0.5625 4.640625 -0.3125 Z M 3.578125 -2.890625 C 3.566406 -3.085938 3.539062 -3.285156 3.5 -3.484375 C 3.445312 -3.648438 3.332031 -3.769531 3.15625 -3.84375 C 2.988281 -3.914062 2.835938 -3.953125 2.703125 -3.953125 C 2.640625 -3.953125 2.578125 -3.945312 2.515625 -3.9375 C 1.828125 -3.789062 1.429688 -3.300781 1.328125 -2.46875 C 1.316406 -2.414062 1.3125 -2.363281 1.3125 -2.3125 C 1.300781 -2.125 1.335938 -1.921875 1.421875 -1.703125 C 1.503906 -1.492188 1.609375 -1.328125 1.734375 -1.203125 C 1.867188 -1.066406 2.109375 -0.992188 2.453125 -0.984375 C 2.796875 -0.984375 3.140625 -1.03125 3.484375 -1.125 C 3.492188 -1.15625 3.503906 -1.195312 3.515625 -1.25 C 3.523438 -1.300781 3.53125 -1.335938 3.53125 -1.359375 C 3.53125 -1.484375 3.546875 -1.992188 3.578125 -2.890625 Z M 3.578125 -2.890625 "/></g></g></g><g fill="#ffbd59" fill-opacity="1"><g transform="translate(60.609095, 34.821705)"><g><path d="M 1.640625 -0.546875 C 1.648438 -0.472656 1.566406 -0.390625 1.390625 -0.296875 C 1.210938 -0.210938 1.03125 -0.15625 0.84375 -0.125 C 0.65625 -0.09375 0.554688 -0.0976562 0.546875 -0.140625 C 0.472656 -0.328125 0.363281 -0.726562 0.21875 -1.34375 C 0.0820312 -1.957031 -0.078125 -2.695312 -0.265625 -3.5625 C -0.453125 -4.4375 -0.570312 -4.984375 -0.625 -5.203125 C -0.632812 -5.265625 -0.546875 -5.332031 -0.359375 -5.40625 C -0.179688 -5.476562 0.00390625 -5.519531 0.203125 -5.53125 C 0.398438 -5.550781 0.503906 -5.523438 0.515625 -5.453125 L 0.53125 -5.375 C 0.90625 -5.601562 1.414062 -5.742188 2.0625 -5.796875 C 2.707031 -5.859375 3.132812 -5.832031 3.34375 -5.71875 C 3.5 -5.632812 3.640625 -5.519531 3.765625 -5.375 C 3.890625 -5.238281 4 -5.0625 4.09375 -4.84375 C 4.195312 -4.632812 4.265625 -4.476562 4.296875 -4.375 C 4.335938 -4.28125 4.40625 -4.101562 4.5 -3.84375 C 4.507812 -3.78125 4.425781 -3.703125 4.25 -3.609375 C 4.070312 -3.515625 3.894531 -3.445312 3.71875 -3.40625 C 3.550781 -3.375 3.445312 -3.378906 3.40625 -3.421875 C 3.375 -3.503906 3.320312 -3.632812 3.25 -3.8125 C 3.175781 -3.988281 3.117188 -4.125 3.078125 -4.21875 C 3.035156 -4.320312 2.984375 -4.429688 2.921875 -4.546875 C 2.859375 -4.660156 2.789062 -4.75 2.71875 -4.8125 C 2.53125 -5.03125 2.296875 -5.15625 2.015625 -5.1875 C 1.742188 -5.21875 1.515625 -5.140625 1.328125 -4.953125 C 1.003906 -4.617188 0.890625 -4.132812 0.984375 -3.5 C 0.992188 -3.46875 1 -3.421875 1 -3.359375 C 1.007812 -3.304688 1.019531 -3.265625 1.03125 -3.234375 C 1.375 -1.648438 1.578125 -0.753906 1.640625 -0.546875 Z M 1.640625 -0.546875 "/></g></g></g><g fill="#ffbd59" fill-opacity="1"><g transform="translate(67.055221, 33.268245)"><g><path d="M 4 -2.375 C 4.03125 -2.269531 3.882812 -2.125 3.5625 -1.9375 C 3.507812 -1.90625 3.460938 -1.882812 3.421875 -1.875 C 3.191406 -1.757812 3.050781 -1.734375 3 -1.796875 C 2.957031 -1.890625 2.921875 -1.96875 2.890625 -2.03125 C 2.566406 -1.757812 2.222656 -1.539062 1.859375 -1.375 C 1.691406 -1.289062 1.523438 -1.222656 1.359375 -1.171875 C 0.691406 -0.953125 0.1875 -0.96875 -0.15625 -1.21875 C -0.5 -1.488281 -0.765625 -1.816406 -0.953125 -2.203125 C -1.035156 -2.378906 -1.125 -2.671875 -1.21875 -3.078125 C -1.320312 -3.492188 -1.207031 -3.921875 -0.875 -4.359375 C -0.71875 -4.578125 -0.382812 -4.8125 0.125 -5.0625 C 0.320312 -5.15625 0.539062 -5.25 0.78125 -5.34375 C 0.957031 -5.40625 1.128906 -5.453125 1.296875 -5.484375 L 1.25 -5.578125 C 1.226562 -5.609375 1.253906 -5.648438 1.328125 -5.703125 C 1.398438 -5.765625 1.46875 -5.8125 1.53125 -5.84375 C 1.59375 -5.882812 1.632812 -5.90625 1.65625 -5.90625 C 1.738281 -5.945312 1.828125 -5.984375 1.921875 -6.015625 C 2.015625 -6.054688 2.101562 -6.082031 2.1875 -6.09375 C 2.269531 -6.113281 2.320312 -6.109375 2.34375 -6.078125 C 2.507812 -5.734375 2.804688 -5.085938 3.234375 -4.140625 C 3.660156 -3.191406 3.914062 -2.601562 4 -2.375 Z M 1.890625 -4.203125 C 1.785156 -4.367188 1.671875 -4.53125 1.546875 -4.6875 C 1.421875 -4.820312 1.265625 -4.878906 1.078125 -4.859375 C 0.898438 -4.835938 0.75 -4.800781 0.625 -4.75 C 0.570312 -4.71875 0.519531 -4.679688 0.46875 -4.640625 C -0.0820312 -4.210938 -0.210938 -3.597656 0.078125 -2.796875 C 0.0859375 -2.742188 0.101562 -2.691406 0.125 -2.640625 C 0.207031 -2.472656 0.328125 -2.3125 0.484375 -2.15625 C 0.648438 -2.007812 0.828125 -1.910156 1.015625 -1.859375 C 1.191406 -1.796875 1.429688 -1.835938 1.734375 -1.984375 C 2.046875 -2.128906 2.335938 -2.328125 2.609375 -2.578125 C 2.609375 -2.609375 2.597656 -2.648438 2.578125 -2.703125 C 2.554688 -2.753906 2.539062 -2.789062 2.53125 -2.8125 C 2.476562 -2.925781 2.265625 -3.390625 1.890625 -4.203125 Z M 1.890625 -4.203125 "/></g></g></g><g fill="#ffbd59" fill-opacity="1"><g transform="translate(72.572607, 30.507697)"><g><path d="M 0.703125 -1.859375 C 1.335938 -2.140625 1.734375 -2.394531 1.890625 -2.625 C 2.035156 -2.8125 2.101562 -3.023438 2.09375 -3.265625 C 2.09375 -3.503906 2.039062 -3.707031 1.9375 -3.875 C 1.84375 -4.0625 1.769531 -4.195312 1.71875 -4.28125 C 1.664062 -4.363281 1.570312 -4.46875 1.4375 -4.59375 C 1.3125 -4.71875 1.1875 -4.804688 1.0625 -4.859375 C 0.789062 -4.910156 0.507812 -4.863281 0.21875 -4.71875 C -0.0703125 -4.582031 -0.3125 -4.40625 -0.5 -4.1875 C -0.695312 -3.976562 -0.8125 -3.785156 -0.84375 -3.609375 C 0.0390625 -2.617188 0.554688 -2.035156 0.703125 -1.859375 Z M -1.390625 -4.28125 C -1.085938 -4.59375 -0.738281 -4.875 -0.34375 -5.125 C 0.0507812 -5.382812 0.425781 -5.554688 0.78125 -5.640625 C 1.1875 -5.742188 1.5625 -5.710938 1.90625 -5.546875 C 2.25 -5.378906 2.523438 -5.125 2.734375 -4.78125 C 2.929688 -4.425781 3.035156 -4.054688 3.046875 -3.671875 C 3.054688 -3.296875 2.9375 -2.941406 2.6875 -2.609375 C 2.4375 -2.296875 2.097656 -2 1.671875 -1.71875 C 1.671875 -1.71875 1.601562 -1.664062 1.46875 -1.5625 C 1.332031 -1.46875 1.226562 -1.394531 1.15625 -1.34375 C 1.21875 -1.28125 1.191406 -1.164062 1.078125 -1 C 0.960938 -0.84375 0.828125 -0.707031 0.671875 -0.59375 C 0.523438 -0.476562 0.425781 -0.4375 0.375 -0.46875 C 0.21875 -0.632812 -0.109375 -1 -0.609375 -1.5625 C -1.117188 -2.132812 -1.742188 -2.847656 -2.484375 -3.703125 C -3.222656 -4.554688 -3.671875 -5.078125 -3.828125 -5.265625 C -3.878906 -5.328125 -3.84375 -5.429688 -3.71875 -5.578125 C -3.59375 -5.722656 -3.4375 -5.847656 -3.25 -5.953125 C -3.070312 -6.054688 -2.957031 -6.078125 -2.90625 -6.015625 C -2.03125 -5.003906 -1.523438 -4.425781 -1.390625 -4.28125 Z M -1.390625 -4.28125 "/></g></g></g><g fill="#ffbd59" fill-opacity="1"><g transform="translate(77.425297, 26.311285)"><g><path d="M -3.796875 -6.328125 C -3.554688 -6.429688 -3.296875 -6.375 -3.015625 -6.15625 C -2.742188 -5.9375 -2.617188 -5.703125 -2.640625 -5.453125 C -2.648438 -5.191406 -2.78125 -4.910156 -3.03125 -4.609375 C -3.28125 -4.304688 -3.523438 -4.109375 -3.765625 -4.015625 C -4.015625 -3.910156 -4.289062 -3.9375 -4.59375 -4.09375 C -4.90625 -4.257812 -5.066406 -4.484375 -5.078125 -4.765625 C -5.078125 -5.078125 -4.941406 -5.390625 -4.671875 -5.703125 C -4.398438 -6.015625 -4.109375 -6.222656 -3.796875 -6.328125 Z M 1.25 -1.703125 C 1.332031 -1.628906 1.257812 -1.441406 1.03125 -1.140625 C 0.800781 -0.847656 0.65625 -0.722656 0.59375 -0.765625 C 0.445312 -0.859375 0.128906 -1.101562 -0.359375 -1.5 C -0.847656 -1.90625 -1.332031 -2.304688 -1.8125 -2.703125 C -2.289062 -3.097656 -2.707031 -3.445312 -3.0625 -3.75 C -3.101562 -3.78125 -3.078125 -3.878906 -2.984375 -4.046875 C -2.890625 -4.222656 -2.765625 -4.378906 -2.609375 -4.515625 C -2.460938 -4.660156 -2.363281 -4.710938 -2.3125 -4.671875 C -2.257812 -4.628906 -1.9375 -4.363281 -1.34375 -3.875 C -0.75 -3.394531 -0.203125 -2.945312 0.296875 -2.53125 C 0.804688 -2.113281 1.125 -1.835938 1.25 -1.703125 Z M -4.296875 -5.40625 C -4.347656 -5.320312 -4.328125 -5.210938 -4.234375 -5.078125 C -4.140625 -4.953125 -4.015625 -4.84375 -3.859375 -4.75 C -3.742188 -4.707031 -3.640625 -4.71875 -3.546875 -4.78125 C -3.453125 -4.851562 -3.398438 -4.945312 -3.390625 -5.0625 C -3.398438 -5.207031 -3.476562 -5.34375 -3.625 -5.46875 C -3.75 -5.5625 -3.867188 -5.609375 -3.984375 -5.609375 C -4.097656 -5.617188 -4.203125 -5.550781 -4.296875 -5.40625 Z M -4.296875 -5.40625 "/></g></g></g><g clip-path="url(#938c043ac8)"><g clip-path="url(#d33cc8e0e9)"><g clip-path="url(#6beff96eed)"><path fill="#ffbd59" d="M 66.355469 22.699219 C 66.28125 22.761719 66.171875 22.761719 66.03125 22.703125 C 65.890625 22.640625 65.757812 22.539062 65.628906 22.390625 C 65.503906 22.242188 65.421875 22.09375 65.386719 21.941406 C 65.351562 21.792969 65.371094 21.6875 65.445312 21.625 C 65.519531 21.5625 65.625 21.558594 65.765625 21.621094 C 65.910156 21.679688 66.042969 21.785156 66.167969 21.933594 C 66.292969 22.082031 66.375 22.230469 66.410156 22.378906 C 66.449219 22.527344 66.429688 22.636719 66.355469 22.699219 Z M 66.355469 22.699219 " fill-opacity="1" fill-rule="nonzero"/></g></g></g></svg>